<svg xmlns="http://www.w3.org/2000/svg" width="894" height="206" viewBox="0 0 894 206">
  <path fill="#2664EF" d="M723.7 161.3C717.5 162.7 709.1 164.3 703.5 164.3 692.6 164.3 686.6 158.3 686.6 143.9L686.6 94.3 717.6 94.3 717.6 58.9 686.6 58.9 686.6 21.2 647.9 21.2 647.8 49.9C647.8 54.8 643.8 58.8 638.9 58.8L616.6 58.8 616.6 94.2 640.9 94.2 640.9 151.7C640.9 186 659.2 204 688.9 204 694.1 204 699 203.7 703.8 203.1 711 202.2 717.6 200.7 723.8 198.8L723.8 161.3 723.7 161.3zM278.8.4C233.1 24.5 203.8 71.2 203.2 128.1L203.2 128.6C203.2 148 195 161.3 178.7 161.3 163.4 161.3 158.5 150.4 158.5 133.8L158.5 57.8 112.7 57.8 112.7 131.1C112.7 151.5 104.2 161.4 90.1 161.4 75.9 161.4 69.9 152.4 69.9 133.1L69.9 97.5C69.9 73.8 60.4 58 35.3 58 21.1 58 .9 58 .9 58L.9 96.4 14.8 96.4C19.9 96.4 24.1 100.5 24.1 105.6L24.1 139.9C24.1 178.9 43.2 203.1 84.6 203.1 108 203.1 124.9 194.6 134.2 179.1 143.5 194.6 157.1 203.1 181.6 203.1 224.7 203.1 248.9 174.8 248.9 132.5 248.9 132.5 249 132.6 249 129.9 249.1 89.4 268.3 54.6 299.9 36.4L278.8.4zM352.8 53.9C397.5 53.9 429.9 86.1 429.9 129.4 429.9 172.2 397.5 204.1 352.8 204.1 308.6 204.1 276.2 172.2 276.2 129.4 276.2 86.1 308.7 53.9 352.8 53.9zM352.8 162.7C372.7 162.7 385.8 147.7 385.8 129.4 385.8 110.6 372.7 95.6 352.8 95.6 333.4 95.6 320.4 110.6 320.4 129.4 320.4 147.7 333.5 162.7 352.8 162.7zM526.6 53.9C571.3 53.9 603.7 86.1 603.7 129.4 603.7 172.2 571.3 204.1 526.6 204.1 482.4 204.1 450 172.2 450 129.4 450 86.1 482.4 53.9 526.6 53.9zM526.6 162.7C546.5 162.7 559.6 147.7 559.6 129.4 559.6 110.6 546.5 95.6 526.6 95.6 507.2 95.6 494.2 110.6 494.2 129.4 494.2 147.7 507.2 162.7 526.6 162.7zM893.6 34.7C893.6 42.1 887.5 48.1 880.1 48.1 872.7 48.1 866.7 42.1 866.7 34.7 866.7 27.3 872.7 21.3 880.1 21.3 887.5 21.3 893.6 27.3 893.6 34.7zM890.6 34.7C890.6 28.9 885.9 24.2 880.1 24.2 874.3 24.2 869.6 29 869.6 34.7 869.6 40.5 874.3 45.2 880.1 45.2 886 45.2 890.6 40.4 890.6 34.7zM883 36.3L885.9 41.2 882.8 41.2 880.3 36.8 878.2 36.8 878.2 41.2 875.4 41.2 875.4 27.9 880.9 27.9C883.5 27.9 885.5 29.7 885.5 32.3 885.5 34.1 884.5 35.6 883 36.3zM878.2 34.5L880.3 34.5C881.9 34.5 882.8 33.7 882.8 32.3 882.8 30.9 882 30.3 880.3 30.3L878.2 30.3 878.2 34.5zM856.5 129.9C848.5 121.9 837 116.4 822.4 113.6L801 109.3C790 107.4 788.3 101.5 788.3 98.1 788.3 91 796.2 85.5 806.2 85.5 825.5 85.5 829 99 829.6 103.1L829.8 104.5 831.2 104.2 865.1 97.1 866.3 96.8 866.1 95.6C864.2 80.1 849.4 53.9 805.8 53.9 773.5 53.9 748.2 74.7 748.2 101.1 748.2 111.5 751.9 120.8 758.8 128.1 766.2 135.9 777.2 141.4 791.5 144.3L811.4 148.6C821.4 150.6 826.5 154.7 826.5 160.9 826.5 168.5 819.2 173.5 808 173.5 796.7 173.5 783.1 168.2 781.9 153.4L781.8 151.9 780.3 152.2 745.5 159.3 744.3 159.6 744.4 160.8C745.6 170.9 751.4 181.6 759.9 189.3 771.5 199.8 788.3 205.3 808.4 205.3 849.5 205.3 868.1 180.7 868.1 157.8 868.1 147.2 864.1 137.5 856.5 129.9z"/>
</svg>
